 <svg version="1.0" xmlns="http://www.w3.org/2000/svg"  width="39.000000pt" height="40.000000pt" viewBox="0 0 39.000000 40.000000"  preserveAspectRatio="xMidYMid meet">  <g transform="translate(0.000000,40.000000) scale(0.100000,-0.100000)" fill="#0065FE" stroke="none"> <path d="M281 296 c-11 -12 -18 -26 -14 -31 5 -4 2 -5 -5 -1 -7 4 -10 11 -7 16 10 16 -26 20 -59 6 -50 -21 -88 -72 -84 -115 2 -23 8 -35 16 -33 8 1 11 -2 7 -8 -6 -9 33 -30 56 -30 5 0 29 18 53 40 45 42 58 72 45 106 -4 13 0 26 13 40 11 12 15 24 10 28 -5 3 -19 -5 -31 -18z m-41 -34 c0 -4 -5 -13 -12 -20 -20 -20 1 -26 22 -7 19 18 20 17 20 -6 0 -28 -66 -99 -92 -99 -21 0 -23 11 -6 28 6 6 9 15 5 19 -4 4 -13 1 -19 -5 -17 -17 -28 -15 -28 5 0 23 69 93 92 93 10 0 18 -4 18 -8z"/> <path d="M96 111 c-10 -11 -13 -22 -8 -25 5 -3 17 3 26 13 10 11 13 22 8 25 -5 3 -17 -3 -26 -13z"/> </g> </svg> 